<svg id="Capa_1" data-name="Capa 1" xmlns="http://www.w3.org/2000/svg" viewBox="0 0 511.99 512"><defs><style>.cls-1{fill:#fff}</style></defs><path class="cls-1" d="M256 0C114.84 0 0 114.84 0 256s114.84 256 256 256 256-114.84 256-256S397.15 0 256 0zm0 433.54c-97.9 0-177.54-79.64-177.54-177.54S158.1 78.46 256 78.46 433.53 158.11 433.53 256 353.89 433.54 256 433.54z"/><path class="cls-1" d="M290.9 211.7L265.4 133a10 10 0 00-9.4-6.9 9.84 9.84 0 00-9.39 6.77l-25.51 78.86a10.2 10.2 0 01-9.39 7.17h-82.34a9.5 9.5 0 00-5.77 17.32L190.11 284a9.81 9.81 0 013.61 11l-25.43 77.84a9.87 9.87 0 0015.18 11l66.73-48.43a9.87 9.87 0 0111.61 0l66.72 48.58a9.87 9.87 0 0015.2-11L318.29 295a9.87 9.87 0 013.62-11.07L388.39 236a9.34 9.34 0 003.61-10.63 9.55 9.55 0 00-9.4-6.47h-82.31a10.23 10.23 0 01-9.39-7.2z"/></svg>