<svg data-name="Capa 1" xmlns="http://www.w3.org/2000/svg" viewBox="0 0 1224 612"><path d="M277.58 179.68l-.06.08a28.6 28.6 0 10-38.67 42.13l-.06.08 91.69 84-91.69 84.05.06.08a28.41 28.41 0 00-9.35 21.06 28.6 28.6 0 0048 21.08l.06.08 114.77-105.17a28.71 28.71 0 000-42.3zM306 0C137 0 0 137 0 306s137 306 306 306 306-137 306-306S475 0 306 0zm0 554.63C168.91 554.63 57.38 443.09 57.38 306S168.91 57.38 306 57.38 554.63 168.91 554.63 306 443.09 554.63 306 554.63z"/><path d="M831.67 284.85a28.71 28.71 0 000 42.3l114.75 105.19.06-.08a28.6 28.6 0 1038.67-42.13l.06-.08L893.52 306l91.69-84-.06-.08a28.6 28.6 0 10-38.67-42.13l-.06-.08zM612 306c0 169 137 306 306 306s306-137 306-306S1087 0 918 0 612 137 612 306zm57.38 0c0-137.09 111.53-248.63 248.62-248.62S1166.63 168.91 1166.63 306 1055.09 554.63 918 554.63 669.38 443.09 669.38 306z" data-name="Right"/></svg>