<svg id="Capa_1" data-name="Capa 1" xmlns="http://www.w3.org/2000/svg" viewBox="0 0 512 512"><defs><style>.cls-1{fill:#fff}</style></defs><path class="cls-1" d="M497.94 430.06l-112-112c-.31-.31-.64-.61-1-.91A206.75 206.75 0 00416 208C416 93.31 322.7 0 208 0S0 93.31 0 208s93.31 208 208 208a206.73 206.73 0 00109.15-31c.3.32.6.64.91 1l112 112a48 48 0 1067.88-67.94zM64 208c0-79.41 64.6-144 144-144s144 64.59 144 144-64.6 144-144 144S64 287.41 64 208z"/><path class="cls-1" d="M272 176h-32v-32a32 32 0 00-64 0v32h-32a32 32 0 000 64h32v32a32 32 0 0064 0v-32h32a32 32 0 000-64z"/></svg>