<svg id="Capa_1" data-name="Capa 1" xmlns="http://www.w3.org/2000/svg" viewBox="0 0 512 511.99"><defs><style>.cls-1{fill:#fff;}</style></defs><title>Vector Smart Object1</title><g id="_356._Play" data-name="356. Play"><path class="cls-1" d="M477.66,128C407,5.6,250.43-36.35,128,34.35S-36.35,261.56,34.34,384,261.55,548.35,384,477.66,548.36,250.43,477.66,128ZM358.38,433.31c-97.92,56.56-223.17,23-279.71-74.95s-23-223.17,74.94-279.69,223.17-23,279.71,74.94S456.31,376.77,358.38,433.31ZM348.14,245.6l-134-78.17c-12.21-7.13-22.07-1.43-22,12.7l0.69,155.15c0.06,14.12,10,19.87,22.28,12.8l133-76.79C360.33,264.23,360.35,252.73,348.14,245.6Z" transform="translate(0 0)"/></g></svg>