<svg id="Capa_1" data-name="Capa 1" xmlns="http://www.w3.org/2000/svg" viewBox="0 0 511.99 512"><defs><style>.cls-1{fill:#fff;}</style></defs><title>Vector Smart Object</title><path class="cls-1" d="M256,0C114.84,0,0,114.84,0,256S114.84,512,256,512,512,397.16,512,256,397.15,0,256,0Zm0,433.54C158.1,433.54,78.46,353.9,78.46,256S158.1,78.46,256,78.46,433.53,158.11,433.53,256,353.89,433.54,256,433.54Z"/><path class="cls-1" d="M290.9,211.7L265.4,133A10,10,0,0,0,256,126.1a9.84,9.84,0,0,0-9.39,6.77l-25.51,78.86a10.2,10.2,0,0,1-9.39,7.17H129.37a9.5,9.5,0,0,0-5.77,17.32L190.11,284a9.81,9.81,0,0,1,3.61,11l-25.43,77.84a9.87,9.87,0,0,0,15.18,11l66.73-48.43a9.87,9.87,0,0,1,11.61,0l66.72,48.58a9.87,9.87,0,0,0,15.2-11L318.29,295a9.87,9.87,0,0,1,3.62-11.07L388.39,236A9.34,9.34,0,0,0,392,225.37a9.55,9.55,0,0,0-9.4-6.47H300.29A10.23,10.23,0,0,1,290.9,211.7Z"/></svg>