<svg id="Capa_1" data-name="Capa 1" xmlns="http://www.w3.org/2000/svg" viewBox="0 0 1224 612"><title>slider_arrows</title><g id="Right"><path d="M277.58,179.68l-0.06.08a28.6,28.6,0,1,0-38.67,42.13l-0.06.08,91.69,84-91.69,84.05,0.06,0.08a28.41,28.41,0,0,0-9.35,21.06,28.6,28.6,0,0,0,48,21.08l0.06,0.08L392.33,327.15a28.71,28.71,0,0,0,0-42.3ZM306,0C137,0,0,137,0,306S137,612,306,612,612,475,612,306,475,0,306,0Zm0,554.63C168.91,554.63,57.38,443.09,57.38,306S168.91,57.38,306,57.38,554.63,168.91,554.63,306,443.09,554.63,306,554.63Z"/></g><g id="Right-2" data-name="Right"><path d="M831.67,284.85a28.71,28.71,0,0,0,0,42.3L946.42,432.34l0.06-.08a28.6,28.6,0,1,0,38.67-42.13l0.06-.08L893.52,306l91.69-84-0.06-.08a28.6,28.6,0,1,0-38.67-42.13l-0.06-.08ZM612,306c0,169,137,306,306,306s306-137,306-306S1087,0,918,0,612,137,612,306Zm57.38,0C669.38,168.91,780.91,57.37,918,57.38S1166.63,168.91,1166.63,306,1055.09,554.63,918,554.63,669.38,443.09,669.38,306Z"/></g></svg>