<svg id="Capa_1" data-name="Capa 1" xmlns="http://www.w3.org/2000/svg" viewBox="0 0 512 512"><defs><style>.cls-1{fill:#fff;}</style></defs><title>zoom_on_slider</title><path class="cls-1" d="M497.94,430.06l-112-112c-0.31-.31-0.64-0.61-1-0.91A206.75,206.75,0,0,0,416,208C416,93.31,322.7,0,208,0S0,93.31,0,208,93.31,416,208,416a206.73,206.73,0,0,0,109.15-31c0.3,0.32.6,0.64,0.91,1l112,112A48,48,0,1,0,497.94,430.06ZM64,208c0-79.41,64.6-144,144-144s144,64.59,144,144S287.4,352,208,352,64,287.41,64,208Z"/><path class="cls-1" d="M272,176H240V144a32,32,0,0,0-64,0v32H144a32,32,0,0,0,0,64h32v32a32,32,0,0,0,64,0V240h32A32,32,0,0,0,272,176Z"/></svg>